<svg width="32" height="32" viewBox="0 0 32 32" fill="none" xmlns="http://www.w3.org/2000/svg">
<path d="M31.5205 19.8721C29.3848 28.4429 20.7014 33.6593 12.1281 31.5204C3.55474 29.3815 -1.6593 20.7024 0.479792 12.1308C2.61888 3.55917 11.298 -1.65969 19.8694 0.479565C28.4407 2.61882 33.6596 11.2984 31.5205 19.8721Z" fill="#F7931A"/>
<path d="M23.0568 13.7205C23.3749 11.5913 21.7537 10.4466 19.5367 9.68311L20.2568 6.79905L18.5006 6.3616L17.7991 9.16982C17.338 9.05494 16.8641 8.94582 16.393 8.83893L17.097 6.01216L15.3426 5.57471L14.6247 8.45765L11.0835 7.58051L10.6163 9.45591C10.6163 9.45591 11.919 9.75447 11.8915 9.77303C12.6025 9.95064 12.7315 10.421 12.7097 10.7942L10.7395 18.6951C10.6524 18.9111 10.432 19.235 9.93498 19.1111C9.95259 19.1367 8.6588 18.7911 8.6588 18.7911L7.78711 20.8038L11.3232 21.6966L10.5964 24.6143L12.3501 25.0518L13.0701 22.1654C13.5501 22.2954 14.0141 22.4154 14.4688 22.5283L13.7517 25.4012L15.5076 25.8386L16.2343 22.9266C19.2284 23.493 21.48 23.2645 22.4264 20.5585C23.1899 18.3785 22.3889 17.1209 20.8136 16.3004C21.9608 16.0348 22.8248 15.2805 23.0554 13.7216L23.0568 13.7205ZM19.0439 19.346C18.4999 21.5261 14.8303 20.348 13.6395 20.052L14.6037 16.1871C15.7938 16.4841 19.61 17.0722 19.0446 19.3457L19.0439 19.346ZM19.5886 13.6896C19.0935 15.6736 16.038 14.6656 15.0463 14.4183L15.9192 10.9119C16.9113 11.1596 20.1035 11.6208 19.5873 13.6894" fill="white"/>
</svg>
