<svg width="20" height="20" viewBox="0 0 20 20" fill="none" xmlns="http://www.w3.org/2000/svg">
<path fill-rule="evenodd" clip-rule="evenodd" d="M9.19107 12.5005C9.65098 12.4831 10.0379 12.8419 10.0552 13.3018C10.0944 14.3386 10.1494 15.0954 10.2034 15.6379C10.2566 16.1723 10.5792 16.4938 11.0289 16.5487C11.5591 16.6135 12.307 16.6666 13.3334 16.6666C14.3598 16.6666 15.1078 16.6135 15.638 16.5487C16.0874 16.4938 16.4101 16.1721 16.4634 15.6377C16.5637 14.6306 16.6667 12.8906 16.6667 9.99992C16.6667 7.10924 16.5637 5.36926 16.4634 4.36215C16.4101 3.82769 16.0874 3.50606 15.638 3.45111C15.1078 3.3863 14.3598 3.33325 13.3334 3.33325C12.307 3.33325 11.5591 3.38629 11.0289 3.45111C10.5792 3.50607 10.2566 3.82757 10.2034 4.36189C10.1494 4.90446 10.0944 5.6612 10.0552 6.69802C10.0379 7.15793 9.65098 7.51669 9.19107 7.49932C8.73116 7.48196 8.3724 7.09506 8.38976 6.63515C8.42994 5.57095 8.4869 4.77944 8.54495 4.19668C8.667 2.97154 9.52117 1.95634 10.8266 1.79676C11.4343 1.72247 12.2507 1.66658 13.3334 1.66658C14.4161 1.66658 15.2325 1.72248 15.8402 1.79676C17.1458 1.95637 17.9998 2.97204 18.1218 4.19694C18.2293 5.27548 18.3334 7.07365 18.3334 9.99992C18.3334 12.9262 18.2293 14.7244 18.1218 15.8029C17.9998 17.0278 17.1458 18.0435 15.8402 18.2031C15.2325 18.2774 14.4161 18.3333 13.3334 18.3333C12.2507 18.3333 11.4343 18.2774 10.8266 18.2031C9.52117 18.0435 8.667 17.0283 8.54495 15.8032C8.4869 15.2204 8.42994 14.4289 8.38976 13.3647C8.3724 12.9048 8.73116 12.5179 9.19107 12.5005Z" fill="#F48989"/>
<path fill-rule="evenodd" clip-rule="evenodd" d="M6.00576 12.3274C6.3312 12.6528 6.3312 13.1805 6.00576 13.5059C5.68032 13.8314 5.15269 13.8314 4.82725 13.5059L1.91058 10.5893C1.58514 10.2638 1.58514 9.73618 1.91058 9.41074L4.82725 6.49408C5.15269 6.16864 5.68032 6.16864 6.00576 6.49408C6.3312 6.81951 6.3312 7.34715 6.00576 7.67259L4.51168 9.16667H12.4998C12.9601 9.16667 13.3332 9.53976 13.3332 10C13.3332 10.4602 12.9601 10.8333 12.4998 10.8333L4.51168 10.8333L6.00576 12.3274Z" fill="#F48989"/>
</svg>
