<svg width="16" height="16" viewBox="0 0 16 16" fill="none" xmlns="http://www.w3.org/2000/svg">
<g clip-path="url(#clip0)">
<path fill-rule="evenodd" clip-rule="evenodd" d="M7.22344 10.4006C7.66496 10.3839 8.03639 10.7283 8.05305 11.1698C8.09063 12.1652 8.14341 12.8916 8.19529 13.4125C8.24639 13.9255 8.55606 14.2341 8.98773 14.2869C9.49673 14.3491 10.2148 14.4 11.2001 14.4C12.1854 14.4 12.9035 14.3491 13.4125 14.2869C13.8439 14.2341 14.1537 13.9253 14.2048 13.4123C14.3012 12.4454 14.4001 10.7751 14.4001 8C14.4001 5.22495 14.3012 3.55457 14.2048 2.58774C14.1537 2.07466 13.8439 1.76589 13.4125 1.71315C12.9035 1.65093 12.1854 1.6 11.2001 1.6C10.2148 1.6 9.49673 1.65092 8.98773 1.71314C8.55606 1.76591 8.24639 2.07454 8.19529 2.5875C8.14341 3.10836 8.09063 3.83483 8.05305 4.83018C8.03639 5.27169 7.66496 5.6161 7.22344 5.59943C6.78193 5.58276 6.43753 5.21133 6.45419 4.76982C6.49276 3.74819 6.54744 2.98834 6.60318 2.42889C6.72034 1.25276 7.54034 0.278161 8.79359 0.124965C9.37696 0.0536526 10.1607 -1.62044e-07 11.2001 -2.07475e-07C12.2395 -2.52907e-07 13.0232 0.0536553 13.6066 0.124972C14.86 0.27819 15.6798 1.25324 15.797 2.42914C15.9001 3.46454 16.0001 5.19078 16.0001 8C16.0001 10.8092 15.9001 12.5355 15.797 13.5709C15.6798 14.7468 14.86 15.7218 13.6066 15.875C13.0233 15.9463 12.2395 16 11.2001 16C10.1607 16 9.37696 15.9463 8.79359 15.875C7.54035 15.7218 6.72034 14.7472 6.60318 13.5711C6.54744 13.0117 6.49276 12.2518 6.45419 11.2302C6.43753 10.7887 6.78193 10.4172 7.22344 10.4006Z" fill="white"/>
<path fill-rule="evenodd" clip-rule="evenodd" d="M4.16569 10.2342C4.47811 10.5466 4.47811 11.0532 4.16569 11.3656C3.85327 11.678 3.34673 11.678 3.03431 11.3656L0.234315 8.56559C-0.0781049 8.25317 -0.0781049 7.74664 0.234315 7.43422L3.03431 4.63422C3.34673 4.3218 3.85327 4.3218 4.16569 4.63422C4.47811 4.94664 4.47811 5.45317 4.16569 5.76559L2.73137 7.1999H10.4C10.8418 7.1999 11.2 7.55807 11.2 7.9999C11.2 8.44173 10.8418 8.7999 10.4 8.7999L2.73137 8.7999L4.16569 10.2342Z" fill="white"/>
</g>
<defs>
<clipPath id="clip0">
<rect width="16" height="16" fill="white"/>
</clipPath>
</defs>
</svg>
