<svg width="19" height="20" viewBox="0 0 19 20" fill="none" xmlns="http://www.w3.org/2000/svg">
<path d="M10.5795 5.46591C10.5795 4.8697 10.0962 4.38636 9.5 4.38636C8.90379 4.38636 8.42045 4.8697 8.42045 5.46591C8.42045 6.06212 8.90379 6.54545 9.5 6.54545C10.0962 6.54545 10.5795 6.06212 10.5795 5.46591Z" fill="#F48989"/>
<path d="M7.98864 8.27273C7.98864 7.79575 8.3753 7.40909 8.85227 7.40909H9.71591C10.1929 7.40909 10.5795 7.79575 10.5795 8.27273V13.4545H11.2273C11.7042 13.4545 12.0909 13.8412 12.0909 14.3182C12.0909 14.7952 11.7042 15.1818 11.2273 15.1818H8.20455C7.72757 15.1818 7.34091 14.7952 7.34091 14.3182C7.34091 13.8412 7.72757 13.4545 8.20455 13.4545H8.85227V9.13636C8.3753 9.13636 7.98864 8.7497 7.98864 8.27273Z" fill="#F48989"/>
<path fill-rule="evenodd" clip-rule="evenodd" d="M9.5 0.5C6.8769 0.5 4.50072 1.56427 2.78249 3.28248C1.06428 5.00071 0 7.3769 0 10C0 12.6231 1.06427 14.9993 2.78248 16.7175C4.50072 18.4357 6.8769 19.5 9.5 19.5C12.1231 19.5 14.4993 18.4357 16.2175 16.7175C17.9357 14.9993 19 12.6231 19 10C19 7.3769 17.9357 5.00072 16.2175 3.28249C14.4993 1.56428 12.1231 0.5 9.5 0.5ZM4.00384 4.50386C5.4114 3.09632 7.35341 2.22727 9.5 2.22727C11.6466 2.22727 13.5886 3.09632 14.9961 4.50385C16.4037 5.91141 17.2727 7.85341 17.2727 10C17.2727 12.1466 16.4037 14.0886 14.9961 15.4961C13.5886 16.9037 11.6466 17.7727 9.5 17.7727C7.35341 17.7727 5.41141 16.9037 4.00385 15.4961C2.59632 14.0886 1.72727 12.1466 1.72727 10C1.72727 7.85341 2.59631 5.91141 4.00384 4.50386Z" fill="#F48989"/>
</svg>
