<svg width="20" height="17" viewBox="0 0 20 17" fill="none" xmlns="http://www.w3.org/2000/svg">
<path d="M2.45067 9.90821L9.40329 16.4395C9.64278 16.6644 9.76253 16.7769 9.90372 16.8046C9.9673 16.8171 10.0327 16.8171 10.0963 16.8046C10.2375 16.7769 10.3572 16.6644 10.5967 16.4395L17.5493 9.90821C19.5055 8.07059 19.743 5.0466 18.0978 2.92607L17.7885 2.52734C15.8203 -0.00942016 11.8696 0.416014 10.4867 3.31365C10.2913 3.72296 9.70868 3.72296 9.51333 3.31365C8.13037 0.416014 4.17972 -0.00941634 2.21154 2.52735L1.90219 2.92607C0.256947 5.0466 0.494498 8.07059 2.45067 9.90821Z" fill="url(#paint0_linear)"/>
<defs>
<linearGradient id="paint0_linear" x1="-1" y1="7" x2="21" y2="7" gradientUnits="userSpaceOnUse">
<stop stop-color="#DE7FE5"/>
<stop offset="1" stop-color="#F5B2BC"/>
</linearGradient>
</defs>
</svg>
