<svg width="21" height="19" viewBox="0 0 21 19" fill="none" xmlns="http://www.w3.org/2000/svg">
<path d="M15.796 10.9999H15.0612C14.9539 10.9999 14.8658 11.035 14.7973 11.1055C14.7282 11.1756 14.6939 11.2655 14.6939 11.3749V15.1249C14.6939 15.6406 14.5141 16.0819 14.1545 16.4491C13.7948 16.8163 13.3623 16.9997 12.8572 16.9997H3.30606C2.80096 16.9997 2.36853 16.8163 2.00879 16.4491C1.64913 16.0819 1.46932 15.6406 1.46932 15.1249V5.3748C1.46932 4.85918 1.64909 4.41789 2.00879 4.0507C2.36853 3.68346 2.80096 3.49994 3.30606 3.49994H11.3876C11.4949 3.49994 11.583 3.46468 11.6518 3.39445C11.7206 3.32414 11.7549 3.23438 11.7549 3.12491V2.37479C11.7549 2.26553 11.7206 2.17559 11.6518 2.10541C11.583 2.03509 11.4949 2 11.3876 2H3.30606C2.39543 2 1.61668 2.33009 0.969895 2.99023C0.323352 3.65033 0 4.44531 0 5.37492V15.1251C0 16.0546 0.323352 16.8497 0.969936 17.5096C1.61672 18.1698 2.39547 18.5001 3.3061 18.5001H12.8572C13.7678 18.5001 14.5466 18.1698 15.1933 17.5096C15.8401 16.8497 16.1634 16.0547 16.1634 15.1251V11.3752C16.1634 11.2656 16.129 11.1757 16.0599 11.1055C15.9911 11.035 15.903 10.9999 15.796 10.9999Z" fill="#F48989"/>
<path d="M20.3521 0.722633C20.2067 0.57417 20.0343 0.5 19.8354 0.5H13.9579C13.759 0.5 13.5867 0.57417 13.4414 0.722633C13.296 0.871014 13.2231 1.04681 13.2231 1.24995C13.2231 1.45309 13.296 1.62893 13.4414 1.77739L15.4617 3.83987L7.97714 11.4806C7.9005 11.5587 7.8623 11.6486 7.8623 11.75C7.8623 11.8518 7.90062 11.9416 7.97714 12.0197L9.28582 13.3555C9.36234 13.4336 9.45039 13.4726 9.54987 13.4726C9.64934 13.4726 9.73744 13.4337 9.81391 13.3555L17.2985 5.71489L19.319 7.77737C19.4643 7.92583 19.6366 8.00008 19.8356 8.00008C20.0345 8.00008 20.2068 7.92583 20.3523 7.77737C20.4977 7.62894 20.5704 7.45319 20.5704 7.25005V1.24995C20.5703 1.04669 20.4974 0.871014 20.3521 0.722633Z" fill="#F48989"/>
</svg>
