<svg width="48" height="48" viewBox="0 0 48 48" fill="none" xmlns="http://www.w3.org/2000/svg">
<path d="M44.4 24C46.3882 24 48.0276 25.6207 47.7305 27.5866C47.2528 30.7475 46.1463 33.7936 44.4634 36.54C42.1507 40.3139 38.8395 43.3747 34.8958 45.3842C30.9521 47.3936 26.5295 48.2733 22.117 47.926C17.7045 47.5787 13.474 46.018 9.89316 43.4164C6.31234 40.8148 3.5207 37.2736 1.82689 33.1844C0.133083 29.0952 -0.39692 24.6172 0.29548 20.2456C0.987879 15.8739 2.87571 11.7789 5.75026 8.41325C7.84212 5.96399 10.3972 3.97041 13.2558 2.53926C15.0337 1.64918 17.0817 2.70753 17.6961 4.59845C18.3104 6.48936 17.2466 8.48922 15.5295 9.49168C13.9105 10.4369 12.4537 11.6508 11.2252 13.0893C9.213 15.4452 7.89152 18.3118 7.40684 21.3719C6.92216 24.4321 7.29316 27.5666 8.47882 30.4291C9.66449 33.2915 11.6186 35.7704 14.1252 37.5915C16.6318 39.4126 19.5931 40.5051 22.6819 40.7482C25.7706 40.9913 28.8664 40.3755 31.627 38.9689C34.3876 37.5623 36.7055 35.4197 38.3244 32.778C39.3128 31.1651 40.0171 29.4044 40.4157 27.5726C40.8386 25.6298 42.4118 24 44.4 24Z" fill="#F5F5F5"/>
<path d="M17.3507 4.71408C16.7026 2.83444 17.7004 0.756317 19.6558 0.396437C22.3149 -0.0929595 25.0463 -0.131081 27.7342 0.292281C31.6118 0.90304 35.2804 2.4556 38.4185 4.81387C41.5565 7.17215 44.0683 10.2641 45.7335 13.8189C46.8878 16.2829 47.6109 18.9171 47.8804 21.6074C48.0787 23.5857 46.3601 25.1222 44.3744 25.0225C42.3886 24.9229 40.8991 23.2163 40.5742 21.2548C40.324 19.7444 39.8677 18.2698 39.2134 16.8732C38.0478 14.3849 36.2896 12.2205 34.0929 10.5697C31.8963 8.91892 29.3283 7.83213 26.6139 7.4046C25.0905 7.16465 23.5471 7.13647 22.0268 7.31628C20.0523 7.54981 17.9987 6.59373 17.3507 4.71408Z" fill="#F48989"/>
</svg>
