<svg width="65" height="62" viewBox="0 0 65 62" fill="none" xmlns="http://www.w3.org/2000/svg">
<path d="M63.4674 38.5022C59.1975 55.1081 41.837 65.215 24.6965 61.0708C7.55613 56.9266 -2.86817 40.1108 1.40845 23.5033C5.68508 6.89589 23.0369 -3.21566 40.1735 0.929157C57.3101 5.07397 67.744 21.8907 63.4674 38.5022Z" fill="#393939"/>
<path fill-rule="evenodd" clip-rule="evenodd" d="M33.0592 21.4394L25.7184 28.4454L21.4471 24.3687L33.0592 13.2854L44.6752 24.3724L40.4038 28.4491L33.0592 21.4394ZM22.7019 31.3234L18.4305 27.247L14.1592 31.3236L18.4305 35.4004L22.7019 31.3234ZM33.0592 41.2088L25.7184 34.2028L21.4408 38.2741L21.4468 38.2797L33.0592 49.3628L44.6752 38.2761L44.6773 38.2738L40.4036 34.1994L33.0592 41.2088ZM47.6884 35.4021L51.9594 31.3253L47.6882 27.2487L43.4167 31.3257L47.6884 35.4021ZM37.392 31.3215H37.3938L33.0595 27.1846L28.729 31.3295L33.0595 35.4626L37.3938 31.3257L37.396 31.3235L37.392 31.3215Z" fill="#F4BB2B"/>
</svg>
