<svg width="20" height="21" viewBox="0 0 20 21" fill="none" xmlns="http://www.w3.org/2000/svg">
<path fill-rule="evenodd" clip-rule="evenodd" d="M9.99939 0.245117C7.29297 0.245117 6.95509 0.25757 5.89244 0.304891C4.83146 0.354702 4.10919 0.52157 3.4741 0.768137C2.81908 1.02218 2.26285 1.36338 1.70911 1.91711C1.15538 2.47086 0.813338 3.02626 0.560129 3.6821C0.313563 4.3172 0.145864 5.03946 0.0968831 6.10045C0.0470717 7.1631 0.0371094 7.50097 0.0371094 10.2074C0.0371094 12.9138 0.0495622 13.2517 0.0968831 14.3143C0.146694 15.3745 0.313563 16.0977 0.560129 16.7327C0.814167 17.3869 1.15538 17.944 1.70911 18.4977C2.26285 19.0506 2.81825 19.3935 3.4741 19.6467C4.11002 19.8924 4.83228 20.0609 5.89244 20.1099C6.95509 20.1597 7.29297 20.1697 9.99939 20.1697C12.7058 20.1697 13.0437 20.1572 14.1063 20.1099C15.1665 20.0601 15.8897 19.8924 16.5247 19.6467C17.1789 19.3926 17.736 19.0506 18.2897 18.4977C18.8426 17.944 19.1855 17.3893 19.4386 16.7327C19.6844 16.0977 19.8529 15.3745 19.9019 14.3143C19.9517 13.2517 19.9617 12.9138 19.9617 10.2074C19.9617 7.50097 19.9491 7.1631 19.9019 6.10045C19.8521 5.04029 19.6844 4.31637 19.4386 3.6821C19.1846 3.02708 18.8426 2.47086 18.2897 1.91711C17.736 1.36338 17.1813 1.02135 16.5247 0.768137C15.8897 0.52157 15.1665 0.353872 14.1063 0.304891C13.0437 0.255079 12.7058 0.245117 9.99939 0.245117ZM15.3177 6.08546C15.9768 6.08546 16.5132 5.54999 16.5132 4.88999C16.5132 4.23081 15.9759 3.69451 15.3177 3.69534C14.6585 3.69534 14.1221 4.23081 14.1221 4.88999C14.1221 5.54916 14.6576 6.08546 15.3177 6.08546ZM4.88379 10.2074C4.88379 7.38305 7.17262 5.09172 9.99942 5.09172C12.8237 5.09172 15.115 7.38056 15.115 10.2074C15.115 13.0317 12.8262 15.323 9.99942 15.323C7.17511 15.323 4.88379 13.0342 4.88379 10.2074ZM9.99942 13.5282C8.16471 13.5282 6.67866 12.0422 6.67866 10.2075C6.67866 8.37273 8.16471 6.88668 9.99942 6.88668C11.8341 6.88668 13.3202 8.37273 13.3202 10.2075C13.3202 12.0422 11.8341 13.5282 9.99942 13.5282Z" fill="#F48989"/>
</svg>
