<svg width="24" height="21" viewBox="0 0 24 21" fill="none" xmlns="http://www.w3.org/2000/svg">
<path fill-rule="evenodd" clip-rule="evenodd" d="M6.27419 11.8054L0.921014 9.7888C0.377188 9.58335 0.372934 8.80854 0.914633 8.59749L22.8832 0.0437418C23.3491 -0.137865 23.8298 0.27373 23.7277 0.767364L19.7855 19.9076C19.6926 20.3599 19.1679 20.5646 18.7971 20.2925L13.4155 16.3491C13.0887 16.11 12.6434 16.1226 12.3307 16.3799L9.34642 18.8348C9.00041 19.1209 8.47857 18.9617 8.34598 18.5305L6.27419 11.8054ZM18.4735 4.22939L8.01176 10.7322C7.61045 10.9825 7.42185 11.4712 7.5516 11.9284L8.6825 15.9399C8.76262 16.2239 9.17173 16.1951 9.21073 15.9013L9.50498 13.7017C9.56028 13.2873 9.75597 12.9059 10.0594 12.6205L18.6933 4.52038C18.8549 4.36893 18.6614 4.11229 18.4735 4.22939Z" fill="#F48989"/>
</svg>
