<svg width="24" height="19" viewBox="0 0 24 19" fill="none" xmlns="http://www.w3.org/2000/svg">
<path d="M3.46857 3.87948C3.49714 3.60115 3.38948 3.32606 3.17865 3.13874L1.03113 0.588472V0.20752H7.69919L12.8533 11.3504L17.3845 0.20752H23.7412V0.588472L21.9051 2.32392C21.7468 2.44287 21.6683 2.63837 21.7011 2.83186V15.5832C21.6683 15.7767 21.7468 15.9722 21.9051 16.0911L23.6983 17.8266V18.2075H14.6787V17.8266L16.5363 16.0488C16.7188 15.8689 16.7188 15.816 16.7188 15.5409V5.23397L11.554 18.1652H10.8561L4.84298 5.23397V13.9006C4.79285 14.265 4.91561 14.6319 5.17585 14.8954L7.59182 17.7842V18.1652H0.741211V17.7842L3.15718 14.8954C3.41552 14.6314 3.53113 14.2621 3.46857 13.9006V3.87948Z" fill="#F48989"/>
</svg>
