<svg width="25" height="21" viewBox="0 0 25 21" fill="none" xmlns="http://www.w3.org/2000/svg">
<path d="M24.8796 2.5875C23.974 2.98474 23.009 3.24805 22.003 3.3759C23.0379 2.75796 23.8279 1.78692 24.1992 0.616489C23.2343 1.19181 22.1689 1.59819 21.0335 1.82497C20.1172 0.849357 18.8113 0.245117 17.3867 0.245117C14.6227 0.245117 12.3975 2.48857 12.3975 5.23885C12.3975 5.63457 12.431 6.01508 12.5132 6.37732C8.36268 6.17489 4.69005 4.18561 2.22287 1.15528C1.79214 1.90259 1.53948 2.75796 1.53948 3.67878C1.53948 5.40779 2.42986 6.94046 3.75706 7.8278C2.95496 7.81258 2.16808 7.57971 1.50143 7.2129C1.50143 7.22812 1.50143 7.24791 1.50143 7.26769C1.50143 9.69379 3.23196 11.7089 5.50129 12.1731C5.09491 12.2843 4.652 12.3375 4.19236 12.3375C3.87273 12.3375 3.55007 12.3193 3.24718 12.2523C3.89404 14.2294 5.72959 15.6829 7.91216 15.7301C6.21359 17.0588 4.0569 17.8594 1.72213 17.8594C1.3127 17.8594 0.920024 17.8411 0.527344 17.7909C2.73883 19.217 5.35974 20.0313 8.18612 20.0313C17.373 20.0313 22.3957 12.4212 22.3957 5.82482C22.3957 5.60413 22.388 5.39105 22.3774 5.17949C23.3682 4.47632 24.2008 3.59812 24.8796 2.5875Z" fill="#F48989"/>
</svg>
