<svg width="23" height="16" viewBox="0 0 23 16" fill="none" xmlns="http://www.w3.org/2000/svg">
<path d="M22.5321 3.04327C22.4022 2.59922 22.1544 2.19465 21.8127 1.86866C21.4709 1.54267 21.0467 1.30629 20.5813 1.18236C18.8341 0.735853 11.8025 0.735852 11.8025 0.735852C11.8025 0.735852 4.78863 0.72694 3.02372 1.18236C2.5582 1.30629 2.13408 1.54267 1.79234 1.86866C1.4506 2.19465 1.20279 2.59922 1.07287 3.04327C0.741679 4.74956 0.578399 6.48164 0.585163 8.21691C0.579678 9.94564 0.742953 11.6711 1.07287 13.371C1.20279 13.8149 1.4506 14.2195 1.79234 14.5456C2.13408 14.8716 2.5582 15.1079 3.02372 15.2318C4.76901 15.6793 11.8025 15.6793 11.8025 15.6793C11.8025 15.6793 18.8154 15.6793 20.5813 15.2318C21.0467 15.1079 21.4709 14.8716 21.8127 14.5456C22.1544 14.2195 22.4022 13.8149 22.5321 13.371C22.8551 11.6705 23.0115 9.94503 22.9993 8.21691C23.0128 6.48226 22.8564 4.75018 22.5321 3.04327ZM9.55829 11.4174V5.00667L15.4108 8.21691L9.55829 11.4174Z" fill="#F48989"/>
</svg>
