<svg width="23" height="16" viewBox="0 0 23 16" fill="none" xmlns="http://www.w3.org/2000/svg">
<path fill-rule="evenodd" clip-rule="evenodd" d="M14.9493 0.117822H14.9639L14.9624 0.113281L14.9493 0.117822ZM14.8997 0.135238L14.9493 0.117822H14.9176L14.8997 0.135238ZM14.8911 0.143581L14.8997 0.135238L14.8759 0.143551L14.8911 0.143581ZM14.8911 0.143581L14.6058 0.420517C17.8059 1.3286 19.3543 2.74672 19.3543 2.74672C17.2918 1.73573 15.4333 1.23022 13.5745 1.02591C12.2315 0.821587 10.8884 0.929043 9.75378 1.02591H9.44503C8.71947 1.02591 7.17573 1.3286 5.10712 2.13831C4.38619 2.44554 3.97247 2.64684 3.97247 2.64684C3.97247 2.64684 5.5193 1.13034 8.92788 0.320627L8.71947 0.116309C8.71947 0.116309 6.13834 0.0194466 3.35188 2.03842C3.35188 2.03842 0.56543 6.79678 0.56543 12.663C0.56543 12.663 2.10917 15.2964 6.34365 15.3963C6.34365 15.3963 6.96115 14.5896 7.58637 13.8798C5.20901 13.1715 4.28276 11.7549 4.28276 11.7549C4.28276 11.7549 4.48962 11.8548 4.79991 12.0576H4.89253C4.93612 12.0576 4.95782 12.0777 4.98081 12.099C4.98226 12.1003 4.9837 12.1017 4.98516 12.103V12.1121C5.00986 12.1363 5.03147 12.1575 5.07778 12.1575C5.12267 12.1756 5.16755 12.1937 5.21239 12.2118C5.67628 12.399 6.13339 12.5834 6.51347 12.7629C7.23285 13.0686 8.15755 13.3728 9.2922 13.5741C10.7279 13.7784 12.3735 13.8768 14.2476 13.5741L14.3075 13.5609C15.2138 13.3611 16.12 13.1613 17.0264 12.7644C17.192 12.6811 17.3682 12.5979 17.5535 12.5102C18.0416 12.2794 18.5933 12.0187 19.1829 11.649C19.1829 11.649 18.2567 13.0656 15.779 13.7739C16.2884 14.4791 17.0063 15.2873 17.0063 15.2873C20.4773 15.213 22.209 13.4314 22.7723 12.8519C22.8965 12.7242 22.9639 12.6549 22.9806 12.6751C22.9806 6.81796 20.1787 2.05052 20.1787 2.05052C17.6836 0.234296 15.3471 0.145385 14.8911 0.143581ZM8.21006 6.79674C9.29068 6.79674 10.1644 7.70483 10.1644 8.81723C10.1644 9.9372 9.2845 10.8453 8.20388 10.8453C7.12326 10.8453 6.24333 9.9372 6.24333 8.82632C6.24333 7.70634 7.12326 6.80128 8.20388 6.80128L8.21006 6.79674ZM15.2233 6.79674C16.3086 6.79674 17.1839 7.70483 17.1839 8.81723C17.1839 9.9372 16.3038 10.8453 15.2233 10.8453C14.1426 10.8453 13.2627 9.9372 13.2627 8.82632C13.2658 7.70634 14.1473 6.80128 15.2233 6.80128V6.79674Z" fill="#F48989"/>
</svg>
