<svg width="100" height="100" viewBox="0 0 100 100" fill="none" xmlns="http://www.w3.org/2000/svg">
<g clip-path="url(#clip0)">
<path d="M95.0534 0L55.9883 31.25L63.2528 12.8333L95.0534 0Z" fill="#E17726" stroke="#E17726" stroke-width="0.25" stroke-linecap="round" stroke-linejoin="round"/>
<path d="M4.94531 0L43.6626 31.5416L36.7461 12.8333L4.94531 0Z" fill="#E27625" stroke="#E27625" stroke-width="0.25" stroke-linecap="round" stroke-linejoin="round"/>
<path d="M80.9898 72.458L70.5957 89.6247L92.8523 96.2498L99.228 72.8333L80.9898 72.458Z" fill="#E27625" stroke="#E27625" stroke-width="0.25" stroke-linecap="round" stroke-linejoin="round"/>
<path d="M0.810547 72.8333L7.14747 96.2498L29.3655 89.6247L19.0099 72.458L0.810547 72.8333Z" fill="#E27625" stroke="#E27625" stroke-width="0.25" stroke-linecap="round" stroke-linejoin="round"/>
<path d="M28.1686 43.4582L21.9863 53.5416L44.0111 54.6249L43.277 29L28.1686 43.4582Z" fill="#E27625" stroke="#E27625" stroke-width="0.25" stroke-linecap="round" stroke-linejoin="round"/>
<path d="M71.8285 43.4584L56.4887 28.7085L55.9863 54.6251L78.0109 53.5418L71.8285 43.4584Z" fill="#E27625" stroke="#E27625" stroke-width="0.25" stroke-linecap="round" stroke-linejoin="round"/>
<path d="M29.3652 89.6249L42.6959 82.6667L31.22 73L29.3652 89.6249Z" fill="#E27625" stroke="#E27625" stroke-width="0.25" stroke-linecap="round" stroke-linejoin="round"/>
<path d="M57.3047 82.6667L70.5967 89.6249L68.7805 73L57.3047 82.6667Z" fill="#E27625" stroke="#E27625" stroke-width="0.25" stroke-linecap="round" stroke-linejoin="round"/>
<path d="M70.5967 89.6252L57.3047 82.667L58.3865 92.0002L58.2705 95.9586L70.5967 89.6252Z" fill="#D5BFB2" stroke="#D5BFB2" stroke-width="0.25" stroke-linecap="round" stroke-linejoin="round"/>
<path d="M29.3652 89.6252L41.7301 95.9586L41.6528 92.0002L42.6959 82.667L29.3652 89.6252Z" fill="#D5BFB2" stroke="#D5BFB2" stroke-width="0.25" stroke-linecap="round" stroke-linejoin="round"/>
<path d="M41.9632 66.833L30.9121 63.3331L38.7173 59.458L41.9632 66.833Z" fill="#233447" stroke="#233447" stroke-width="0.25" stroke-linecap="round" stroke-linejoin="round"/>
<path d="M58.0371 66.833L61.283 59.458L69.1269 63.3331L58.0371 66.833Z" fill="#233447" stroke="#233447" stroke-width="0.25" stroke-linecap="round" stroke-linejoin="round"/>
<path d="M29.3671 89.6247L31.2993 72.458L19.0117 72.8333L29.3671 89.6247Z" fill="#CC6228" stroke="#CC6228" stroke-width="0.25" stroke-linecap="round" stroke-linejoin="round"/>
<path d="M68.7012 72.458L70.5946 89.6247L80.9887 72.8333L68.7012 72.458Z" fill="#CC6228" stroke="#CC6228" stroke-width="0.25" stroke-linecap="round" stroke-linejoin="round"/>
<path d="M78.0109 53.541L55.9863 54.6243L58.0342 66.8329L61.28 59.4577L69.1239 63.3328L78.0109 53.541Z" fill="#CC6228" stroke="#CC6228" stroke-width="0.25" stroke-linecap="round" stroke-linejoin="round"/>
<path d="M30.9121 63.3328L38.7174 59.4577L41.9632 66.8329L44.0111 54.6243L21.9863 53.541L30.9121 63.3328Z" fill="#CC6228" stroke="#CC6228" stroke-width="0.25" stroke-linecap="round" stroke-linejoin="round"/>
<path d="M21.9883 53.541L31.2233 72.9994L30.914 63.3328L21.9883 53.541Z" fill="#E27525" stroke="#E27525" stroke-width="0.25" stroke-linecap="round" stroke-linejoin="round"/>
<path d="M69.127 63.3328L68.7793 72.9994L78.0143 53.541L69.127 63.3328Z" fill="#E27525" stroke="#E27525" stroke-width="0.25" stroke-linecap="round" stroke-linejoin="round"/>
<path d="M44.011 54.625L41.9629 66.8336L44.5517 81.25L45.1314 62.2501L44.011 54.625Z" fill="#E27525" stroke="#E27525" stroke-width="0.25" stroke-linecap="round" stroke-linejoin="round"/>
<path d="M55.9903 54.625L54.9082 62.2086L55.4492 81.25L58.0381 66.8336L55.9903 54.625Z" fill="#E27525" stroke="#E27525" stroke-width="0.25" stroke-linecap="round" stroke-linejoin="round"/>
<path d="M58.0361 66.8337L55.4473 81.2501L57.3021 82.6669L68.7782 73.0002L69.1259 63.3335L58.0361 66.8337Z" fill="#F5841F" stroke="#F5841F" stroke-width="0.25" stroke-linecap="round" stroke-linejoin="round"/>
<path d="M30.9121 63.3335L31.2214 73.0002L42.6973 82.6669L44.5521 81.2501L41.9632 66.8337L30.9121 63.3335Z" fill="#F5841F" stroke="#F5841F" stroke-width="0.25" stroke-linecap="round" stroke-linejoin="round"/>
<path d="M58.2679 95.9589L58.3836 92.0005L57.3792 91.0838H42.6188L41.6528 92.0005L41.7301 95.9589L29.3652 89.6255L33.6929 93.4588L42.4642 100.001H57.4949L66.3048 93.4588L70.5938 89.6255L58.2679 95.9589Z" fill="#C0AC9D" stroke="#C0AC9D" stroke-width="0.25" stroke-linecap="round" stroke-linejoin="round"/>
<path d="M57.3034 82.6665L55.4486 81.25H44.5522L42.6977 82.6665L41.6543 92L42.6204 91.0832H57.3807L58.3855 92L57.3034 82.6665Z" fill="#161616" stroke="#161616" stroke-width="0.25" stroke-linecap="round" stroke-linejoin="round"/>
<path d="M96.7172 33.2915L100.002 16.0417L95.0557 0L57.3047 30.2084L71.8331 43.4582L92.3509 49.9167L96.8718 44.2084L94.9014 42.6665L98.0309 39.5835L95.6354 37.5834L98.7653 35L96.7172 33.2915Z" fill="#763E1A" stroke="#763E1A" stroke-width="0.25" stroke-linecap="round" stroke-linejoin="round"/>
<path d="M0 16.0417L3.32304 33.2915L1.19785 35L4.36631 37.5834L1.97064 39.5835L5.10046 42.6665L3.12982 44.2084L7.65071 49.9167L28.1686 43.4582L42.697 30.2084L4.94592 0L0 16.0417Z" fill="#763E1A" stroke="#763E1A" stroke-width="0.25" stroke-linecap="round" stroke-linejoin="round"/>
<path d="M92.3496 49.9162L71.8318 43.458L78.0143 53.5414L68.7793 72.9995L80.9895 72.8329H99.2274L92.3496 49.9162Z" fill="#F5841F" stroke="#F5841F" stroke-width="0.25" stroke-linecap="round" stroke-linejoin="round"/>
<path d="M28.1675 43.458L7.6498 49.9162L0.810547 72.8329H19.0099L31.22 72.9995L21.9852 53.5414L28.1675 43.458Z" fill="#F5841F" stroke="#F5841F" stroke-width="0.25" stroke-linecap="round" stroke-linejoin="round"/>
<path d="M55.9888 54.6254L57.3025 30.2084L63.253 12.8335H36.7461L42.6965 30.2084L44.0103 54.6254L44.5127 62.2921L44.5513 81.2506H55.4478L55.4864 62.2921L55.9888 54.6254Z" fill="#F5841F" stroke="#F5841F" stroke-width="0.25" stroke-linecap="round" stroke-linejoin="round"/>
</g>
<defs>
<clipPath id="clip0">
<rect width="100" height="100" fill="white"/>
</clipPath>
</defs>
</svg>
