<svg width="21" height="21" viewBox="0 0 21 21" fill="none" xmlns="http://www.w3.org/2000/svg">
<path fill-rule="evenodd" clip-rule="evenodd" d="M1.02276 16.3979L1.74741 13.1369C1.91243 12.3943 2.28581 11.7142 2.82373 11.1762L12.6717 1.32831C14.2338 -0.233784 16.7664 -0.233788 18.3285 1.32831L19.6717 2.67146C21.2338 4.23355 21.2338 6.76621 19.6717 8.32831L9.82373 18.1762C9.28581 18.7142 8.60564 19.0875 7.86302 19.2526L4.60211 19.9772C2.45862 20.4535 0.546429 18.5414 1.02276 16.3979ZM3.69978 13.5708L2.97514 16.8317C2.81636 17.5462 3.45375 18.1836 4.16825 18.0248L7.42916 17.3002C7.78626 17.2208 8.11448 17.0451 8.37833 16.7925L4.20743 12.6216C3.95485 12.8855 3.77914 13.2137 3.69978 13.5708ZM5.62131 11.2071L9.79288 15.3787L15.3787 9.79288L11.2071 5.62131L5.62131 11.2071ZM18.2575 6.9141L16.7929 8.37867L12.6213 4.20709L14.0859 2.74253C14.8669 1.96148 16.1333 1.96148 16.9143 2.74252L18.2575 4.08567C19.0385 4.86672 19.0385 6.13305 18.2575 6.9141Z" fill="#777E91"/>
</svg>
