<svg width="20" height="20" viewBox="0 0 20 20" fill="none" xmlns="http://www.w3.org/2000/svg">
<circle cx="10" cy="10" r="10" fill="url(#paint0_linear)"/>
<path fill-rule="evenodd" clip-rule="evenodd" d="M4.04622 8.20034C4.81051 5.767 7.08329 4 9.77137 4C11.2062 4 12.5228 4.50348 13.5547 5.34303C13.63 4.86531 14.0436 4.5 14.5425 4.5C15.0948 4.5 15.5425 4.94772 15.5425 5.5V8.5C15.5425 8.99375 15.1821 9.4136 14.694 9.48845C14.206 9.56329 13.7364 9.27072 13.5884 8.79966C13.0784 7.1759 11.5609 6 9.77137 6C7.98185 6 6.46432 7.1759 5.95431 8.79966C5.78882 9.32656 5.22752 9.61954 4.70061 9.45405C4.1737 9.28855 3.88072 8.72725 4.04622 8.20034ZM14.8421 10.546C15.369 10.7114 15.662 11.2728 15.4965 11.7997C14.7322 14.233 12.4594 16 9.77137 16C8.33649 16 7.01995 15.4965 5.98801 14.657C5.9127 15.1347 5.49915 15.5 5.00027 15.5C4.44798 15.5 4.00027 15.0523 4.00027 14.5V11.5C4.00027 11.0062 4.36064 10.5864 4.84869 10.5116C5.33674 10.4367 5.80636 10.7293 5.95431 11.2003C6.46432 12.8241 7.98185 14 9.77137 14C11.5609 14 13.0784 12.8241 13.5884 11.2003C13.7539 10.6734 14.3152 10.3805 14.8421 10.546Z" fill="white"/>
<defs>
<linearGradient id="paint0_linear" x1="0" y1="10" x2="20" y2="10" gradientUnits="userSpaceOnUse">
<stop stop-color="#DE7FE5"/>
<stop offset="1" stop-color="#F5B2BC"/>
</linearGradient>
</defs>
</svg>
