<svg width="21" height="21" viewBox="0 0 21 21" fill="none" xmlns="http://www.w3.org/2000/svg">
<path fill-rule="evenodd" clip-rule="evenodd" d="M0 9.5C0 4.25332 4.25332 0 9.5 0C14.7467 0 19 4.25332 19 9.5C19 11.7631 18.2086 13.8414 16.8875 15.4733L20.5607 19.1464C20.9512 19.537 20.9512 20.1701 20.5607 20.5607C20.1701 20.9512 19.537 20.9512 19.1464 20.5607L15.4733 16.8875C13.8414 18.2086 11.7631 19 9.5 19C4.25332 19 0 14.7467 0 9.5ZM9.5 2C5.35788 2 2 5.35788 2 9.5C2 13.6421 5.35788 17 9.5 17C13.6421 17 17 13.6421 17 9.5C17 5.35788 13.6421 2 9.5 2ZM5.96447 5.46442C6.86823 4.56072 8.11959 4 9.5 4C10.8804 4 12.1318 4.56072 13.0355 5.46444C13.426 5.85497 13.426 6.48813 13.0355 6.87866C12.645 7.26918 12.0118 7.26918 11.6213 6.87866C11.0773 6.33468 10.3287 6 9.5 6C8.67131 6 7.92267 6.33468 7.37863 6.87868C6.98809 7.26919 6.35493 7.26917 5.96442 6.87863C5.57391 6.48809 5.57393 5.85493 5.96447 5.46442Z" fill="url(#paint0_linear)"/>
<defs>
<linearGradient id="paint0_linear" x1="0" y1="10.4268" x2="20.8535" y2="10.4268" gradientUnits="userSpaceOnUse">
<stop stop-color="#DE7FE5"/>
<stop offset="1" stop-color="#F5B2BC"/>
</linearGradient>
</defs>
</svg>
