<svg width="20" height="20" viewBox="0 0 20 20" fill="none" xmlns="http://www.w3.org/2000/svg">
<path fill-rule="evenodd" clip-rule="evenodd" d="M9.99984 3.33439C8.37298 3.33439 6.87331 3.46856 5.66959 3.62754C4.58627 3.77061 3.76939 4.58749 3.62632 5.67081C3.46734 6.87453 3.33317 8.3742 3.33317 10.0011C3.33317 11.6279 3.46734 13.1276 3.62632 14.3313C3.76939 15.4146 4.58627 16.2315 5.66959 16.3746C6.87331 16.5336 8.37298 16.6677 9.99984 16.6677C11.6267 16.6677 13.1264 16.5336 14.3301 16.3746C15.4134 16.2315 16.2303 15.4146 16.3734 14.3313C16.5323 13.1276 16.6665 11.6279 16.6665 10.0011C16.6665 8.3742 16.5323 6.87453 16.3734 5.67081C16.2303 4.58749 15.4134 3.77061 14.3301 3.62754C13.1264 3.46856 11.6267 3.33439 9.99984 3.33439ZM5.45137 1.97522C3.62071 2.21699 2.21577 3.62193 1.974 5.45259C1.80778 6.71113 1.6665 8.28545 1.6665 10.0011C1.6665 11.7167 1.80778 13.291 1.974 14.5495C2.21577 16.3802 3.62071 17.7851 5.45137 18.0269C6.70991 18.1931 8.28423 18.3344 9.99984 18.3344C11.7154 18.3344 13.2898 18.1931 14.5483 18.0269C16.379 17.7851 17.7839 16.3802 18.0257 14.5495C18.1919 13.291 18.3332 11.7167 18.3332 10.0011C18.3332 8.28545 18.1919 6.71113 18.0257 5.45259C17.7839 3.62193 16.379 2.217 14.5483 1.97522C13.2898 1.809 11.7154 1.66772 9.99984 1.66772C8.28423 1.66772 6.70991 1.809 5.45137 1.97522Z" fill="#777E91"/>
<path fill-rule="evenodd" clip-rule="evenodd" d="M8.16075 6.49505C7.83531 6.82049 7.83531 7.34813 8.16075 7.67357L10.4882 10.001L8.16075 12.3284C7.83531 12.6538 7.83531 13.1815 8.16075 13.5069C8.48618 13.8323 9.01382 13.8323 9.33926 13.5069L12.2559 10.5902C12.5814 10.2648 12.5814 9.73716 12.2559 9.41172L9.33926 6.49505C9.01382 6.16962 8.48618 6.16962 8.16075 6.49505Z" fill="#777E91"/>
</svg>
