<svg width="23" height="22" viewBox="0 0 23 22" fill="none" xmlns="http://www.w3.org/2000/svg">
<path d="M1.54808 14.552C1.91366 14.8597 2.21605 15.2398 2.18446 15.5023C2.1664 15.6561 2.15738 15.8145 2.15738 15.9774C2.15738 18.3484 4.02139 20.2715 6.31868 20.2715C6.60302 20.2715 6.87834 20.2443 7.14914 20.1855C7.60047 20.0905 8.13305 20.2715 8.45349 20.629C9.21173 21.4706 10.2949 22 11.5 22C12.7728 22 13.9101 21.4118 14.6729 20.4842C14.9753 20.1176 15.4898 19.9638 15.9456 20.0995C16.3157 20.2081 16.7039 20.2715 17.1101 20.2715C19.4074 20.2715 21.2714 18.3484 21.2714 15.9774C21.2714 15.7104 21.2488 15.4525 21.2037 15.2036C21.127 14.7783 21.3346 14.2534 21.6776 13.9186C22.49 13.1357 23 12.0226 23 10.7873C23 9.43891 22.3952 8.23982 21.4519 7.45249C21.0863 7.1448 20.7839 6.76471 20.8155 6.50226C20.8336 6.34842 20.8426 6.19005 20.8426 6.02715C20.8426 3.65611 18.9786 1.73303 16.6813 1.73303C16.397 1.73303 16.1217 1.76471 15.8509 1.819C15.3995 1.91403 14.867 1.73303 14.5465 1.37557C13.7883 0.529412 12.7051 0 11.5 0C10.2949 0 9.21173 0.529412 8.45349 1.37104C8.13305 1.72398 7.60047 1.9095 7.14914 1.81448C6.88285 1.76018 6.60302 1.72851 6.31868 1.72851C4.02139 1.72851 2.15738 3.65158 2.15738 6.02262C2.15738 6.24887 2.17543 6.47511 2.20703 6.69231C2.2657 7.05882 2.00844 7.51131 1.63383 7.80996C0.640895 8.59276 0 9.82805 0 11.2172C0 12.5611 0.604788 13.7647 1.54808 14.552Z" fill="white"/>
<path d="M3.27885 13.9062C3.58085 14.158 3.83065 14.4689 3.80455 14.6837C3.78964 14.8095 3.78218 14.9391 3.78218 15.0724C3.78218 17.0123 5.32202 18.5858 7.21978 18.5858C7.45467 18.5858 7.6821 18.5636 7.90581 18.5154C8.27865 18.4377 8.7186 18.5858 8.98332 18.8782C9.60969 19.5668 10.5045 20 11.5 20C12.5514 20 13.491 19.5187 14.1211 18.7598C14.3709 18.4599 14.7959 18.334 15.1725 18.4451C15.4782 18.5339 15.7989 18.5858 16.1344 18.5858C18.0322 18.5858 19.572 17.0123 19.572 15.0724C19.572 14.854 19.5534 14.6429 19.5161 14.4393C19.4527 14.0913 19.6242 13.6619 19.9076 13.3879C20.5787 12.7474 21 11.8367 21 10.826C21 9.72275 20.5004 8.74167 19.7212 8.09749C19.4192 7.84574 19.1693 7.53476 19.1954 7.32003C19.2104 7.19416 19.2178 7.06458 19.2178 6.9313C19.2178 4.99136 17.678 3.41794 15.7802 3.41794C15.5453 3.41794 15.3179 3.44385 15.0942 3.48828C14.7213 3.56602 14.2814 3.41794 14.0167 3.12546C13.3903 2.43316 12.4955 2 11.5 2C10.5045 2 9.60969 2.43316 8.98332 3.12176C8.7186 3.41053 8.27865 3.56232 7.90581 3.48457C7.68583 3.44015 7.45467 3.41423 7.21978 3.41423C5.32202 3.41423 3.78218 4.98766 3.78218 6.9276C3.78218 7.11271 3.7971 7.29782 3.82319 7.47552C3.87166 7.7754 3.65914 8.14562 3.34969 8.38996C2.52943 9.03044 2 10.0411 2 11.1777C2 12.2773 2.49961 13.262 3.27885 13.9062Z" fill="#F48989"/>
<path d="M7.02897 11.3352C7.09677 11.2204 7.27644 11.2173 7.43576 11.3511L9.06633 12.4314C9.15447 12.4824 9.23922 12.5079 9.32057 12.5079C9.49007 12.5079 9.62228 12.3932 9.7511 12.2848L14.9716 7.37397C15.297 7.03936 15.6157 6.92144 15.8225 7.0521C15.9174 7.11265 15.9784 7.1987 15.9954 7.30386C16.0157 7.42496 15.9683 7.55562 15.8666 7.67353L9.59177 14.8375C9.50024 14.9426 9.38498 15 9.26633 15C9.12396 15 8.99514 14.9203 8.91378 14.7801L7.07304 11.657C6.99507 11.5391 6.97812 11.418 7.02897 11.3352Z" fill="white"/>
</svg>
