<svg width="100" height="60" viewBox="0 0 100 60" fill="none" xmlns="http://www.w3.org/2000/svg">
<path d="M20.4701 12.0579C36.779 -3.44833 63.221 -3.44833 79.5301 12.0579L82.2286 14.6236C82.6365 15.0116 82.6376 15.6413 82.2304 16.03C82.2297 16.0308 82.2293 16.0315 82.2286 16.0322L74.7769 23.1166C74.3697 23.5039 73.7104 23.5039 73.3032 23.1166L70.601 20.5473C59.2234 9.72993 40.7766 9.72993 29.3993 20.5473L26.5052 23.2988C26.0979 23.6861 25.4387 23.6861 25.0315 23.2988L17.5799 16.214C17.1719 15.826 17.1711 15.1963 17.578 14.8076C17.5787 14.8069 17.5793 14.8062 17.5799 14.8058L20.4701 12.0579ZM92.6763 24.5568L99.3868 30.9371C100.203 31.7131 100.204 32.9726 99.3908 33.7504C99.3893 33.7518 99.3883 33.7529 99.3868 33.7544L72.4438 59.3714C71.6291 60.1456 70.3109 60.1456 69.4962 59.3714L50.3686 41.1854C50.1648 40.9916 49.8356 40.9916 49.6318 41.1854L30.5046 59.3714C29.6898 60.1456 28.3716 60.1456 27.557 59.3714L0.613186 33.754C-0.202887 32.978 -0.204606 31.7182 0.609308 30.9404C0.610589 30.9393 0.611869 30.9379 0.613186 30.9368L7.32364 24.5568C7.73091 24.1696 8.3901 24.1696 8.79737 24.5568L28.6621 43.4433C28.8659 43.6371 29.1956 43.6371 29.399 43.4433L48.5258 25.2573C49.3406 24.4828 50.6587 24.4828 51.4735 25.2573L70.6014 43.4433C70.8048 43.6371 71.1345 43.6371 71.3382 43.4433L91.2026 24.5568C91.6098 24.1699 92.2691 24.1699 92.6763 24.5568Z" fill="#3B99FC"/>
</svg>
