<svg width="80" height="26" viewBox="0 0 80 26" fill="none" xmlns="http://www.w3.org/2000/svg">
<path d="M34.2058 3.32261C35.119 3.32261 35.9329 3.44416 36.6476 3.68728C37.3623 3.91689 37.9579 4.25455 38.4343 4.70027C38.924 5.13248 39.2946 5.65923 39.5461 6.28053C39.7975 6.88832 39.9233 7.57715 39.9233 8.34702C39.9233 8.95482 39.8306 9.56261 39.6453 10.1704C39.4733 10.7782 39.1821 11.332 38.7718 11.8317C38.3748 12.3314 37.8454 12.7366 37.1836 13.0473C36.5219 13.3444 35.7013 13.493 34.7219 13.493H32.6573V18.2338H29.7787V3.32261H34.2058ZM34.7021 10.6566C35.1388 10.6566 35.5028 10.5823 35.794 10.4338C36.0851 10.2852 36.3101 10.0961 36.469 9.8665C36.641 9.63689 36.7601 9.40053 36.8263 9.15741C36.9057 8.90079 36.9454 8.66443 36.9454 8.44832C36.9454 8.28624 36.9189 8.08365 36.866 7.84053C36.8263 7.58391 36.7337 7.32728 36.5881 7.07066C36.4425 6.81404 36.2175 6.59793 35.9131 6.42235C35.6219 6.24676 35.2249 6.15897 34.7219 6.15897H32.6573V10.6566H34.7021ZM37.402 12.48L41.0152 18.2338H37.6601L33.9675 12.5611L37.402 12.48Z" fill="#4AA956"/>
<path d="M45.731 18.6592C44.9502 18.6592 44.295 18.4161 43.7657 17.9299C43.2363 17.4301 42.9583 16.7886 42.9318 16.0052V9.38027H45.7112V14.9517C45.7377 15.3434 45.8369 15.6608 46.009 15.9039C46.181 16.1335 46.4722 16.2483 46.8825 16.2483C47.2928 16.2483 47.6435 16.1065 47.9347 15.8229C48.2391 15.5392 48.4707 15.1543 48.6295 14.6681C48.8016 14.1683 48.8876 13.6078 48.8876 12.9865V9.38027H51.6669V18.2338H49.1457L48.9273 16.613L48.967 16.7953C48.7685 17.16 48.517 17.4842 48.2126 17.7678C47.9082 18.0514 47.5442 18.2675 47.1207 18.4161C46.7104 18.5782 46.2472 18.6592 45.731 18.6592Z" fill="#4AA956"/>
<path d="M60.223 18.4769C59.4951 18.4769 58.8797 18.3553 58.3767 18.1122C57.887 17.8556 57.4569 17.5247 57.0863 17.1195L57.3047 16.5117V18.2338H54.5254V2.24884H57.2848V10.8998V9.98806C57.629 9.69092 58.0856 9.44105 58.6547 9.23845C59.2238 9.03585 59.8723 8.93456 60.6002 8.93456C61.3546 8.93456 62.0428 9.11689 62.6649 9.48157C63.2869 9.84624 63.7832 10.3798 64.1538 11.0821C64.5376 11.7709 64.7295 12.6151 64.7295 13.6146C64.7295 14.614 64.5177 15.4785 64.0942 16.2078C63.6839 16.9372 63.1347 17.4977 62.4465 17.8894C61.7583 18.2811 61.0171 18.4769 60.223 18.4769ZM59.6076 16.0862C60.0179 16.0862 60.3951 15.9782 60.7392 15.7621C61.0965 15.546 61.3811 15.2488 61.5928 14.8707C61.8046 14.4925 61.9105 14.067 61.9105 13.5943C61.9105 13.1216 61.8046 12.7029 61.5928 12.3382C61.3811 11.9735 61.0965 11.6899 60.7392 11.4873C60.3951 11.2712 60.0179 11.1631 59.6076 11.1631C59.2502 11.1631 58.9127 11.2239 58.5951 11.3455C58.2907 11.4535 58.026 11.6156 57.801 11.8317C57.5893 12.0343 57.4238 12.2842 57.3047 12.5813V14.7491C57.4635 15.0462 57.6488 15.2961 57.8606 15.4987C58.0856 15.6878 58.3436 15.8364 58.6348 15.9444C58.926 16.039 59.2502 16.0862 59.6076 16.0862Z" fill="#4AA956"/>
<path d="M66.9137 9.38027H69.6931V18.2338H66.9137V9.38027ZM66.8542 6.24001C66.8542 5.82131 67.013 5.47689 67.3306 5.20676C67.6615 4.93663 68.0122 4.80157 68.3828 4.80157C68.7534 4.80157 69.0909 4.93663 69.3953 5.20676C69.7129 5.47689 69.8717 5.82131 69.8717 6.24001C69.8717 6.65871 69.7129 7.00313 69.3953 7.27326C69.0909 7.52988 68.7534 7.65819 68.3828 7.65819C68.0122 7.65819 67.6615 7.52988 67.3306 7.27326C67.013 7.00313 66.8542 6.65871 66.8542 6.24001Z" fill="#4AA956"/>
<path d="M79.9206 17.4436C79.5368 17.7543 79.0538 18.0042 78.4714 18.1933C77.9023 18.3824 77.3398 18.4769 76.784 18.4769C75.7913 18.4769 74.9244 18.2946 74.1833 17.9299C73.4554 17.5517 72.8863 17.0182 72.476 16.3294C72.0789 15.627 71.8804 14.7829 71.8804 13.7969C71.8804 12.8109 72.0988 11.9735 72.5355 11.2847C72.9723 10.5823 73.5414 10.0488 74.2429 9.68417C74.9575 9.31949 75.7053 9.13715 76.4862 9.13715C77.267 9.13715 77.942 9.24521 78.5111 9.46131C79.0935 9.67741 79.5898 9.96105 80.0001 10.3122L78.6501 12.1356C78.4648 11.987 78.2067 11.8385 77.8758 11.6899C77.5582 11.5278 77.181 11.4468 76.7443 11.4468C76.3604 11.4468 76.0097 11.5481 75.6921 11.7507C75.3744 11.9533 75.123 12.2301 74.9377 12.5813C74.7524 12.9325 74.6598 13.3377 74.6598 13.7969C74.6598 14.2291 74.759 14.6275 74.9575 14.9922C75.1561 15.3569 75.4274 15.6473 75.7715 15.8634C76.1288 16.066 76.5457 16.1673 77.0222 16.1673C77.3266 16.1673 77.6045 16.1268 77.856 16.0457C78.1207 15.9512 78.3457 15.8229 78.531 15.6608L79.9206 17.4436Z" fill="#4AA956"/>
<path d="M21.8377 6.56494L10.7928 0L0.0229147 6.44687L0 19.4351L10.8615 26L21.8377 19.5767V6.56494ZM10.8157 1.98365L18.9733 6.84832L10.8615 11.713L2.70393 6.84832L10.8157 1.98365ZM9.87622 23.3079L1.67277 18.4668V8.78474L9.8533 13.6494V23.3079H9.87622ZM11.9844 13.7911L20.1649 8.92643V18.5849L11.9844 23.4732V13.7911Z" fill="#4AA956"/>
</svg>
