<svg width="62" height="62" viewBox="0 0 62 62" fill="none" xmlns="http://www.w3.org/2000/svg">
<circle cx="31" cy="31" r="31" fill="#F48989"/>
<path d="M42.3661 21.7001C41.3766 22.3981 40.281 22.9319 39.1215 23.2811C38.4991 22.5655 37.6721 22.0583 36.7521 21.8281C35.8321 21.598 34.8636 21.6559 33.9776 21.994C33.0916 22.3322 32.3309 22.9343 31.7982 23.7189C31.2656 24.5036 30.9868 25.4328 30.9995 26.3811V27.4144C29.1835 27.4615 27.3841 27.0588 25.7615 26.242C24.1389 25.4253 22.7435 24.22 21.6995 22.7334C21.6995 22.7334 17.5661 32.0334 26.8661 36.1668C24.738 37.6113 22.2029 38.3356 19.6328 38.2334C28.9328 43.4001 40.2995 38.2334 40.2995 26.3501C40.2985 26.0623 40.2709 25.7751 40.2168 25.4924C41.2714 24.4524 42.0157 23.1392 42.3661 21.7001V21.7001Z" fill="white"/>
</svg>
